 http://www.imdb.com/title/tt2168910/
 
http://en.wikipedia.org/wiki/Cocktail_(2012_film)


Format                                   : Matroska
Format version                           : Version 2
File size                                : 894 MiB
Duration                                 : 2h 24mn
Overall bit rate mode                    : Variable
Overall bit rate                         : 863 Kbps

Video
ID                                       : 1
Format                                   : AVC
Format/Info                              : Advanced Video Codec
Format profile                           : High@L4.1
Format settings, CABAC                   : Yes
Format settings, ReFrames                : 4 frames
Muxing mode                              : Header stripping
Codec ID                                 : V_MPEG4/ISO/AVC
Duration                                 : 2h 24mn
Bit rate mode                            : Variable
Bit rate                                 : 800 Kbps
Maximum bit rate                         : 3 500 Kbps
Width                                    : 1 280 pixels
Height                                   : 544 pixels
Display aspect ratio                     : 2.35:1
Original display aspect ratio            : 2.35:1
Frame rate                               : 24.000 fps
Color space                              : YUV
Chroma subsampling                       : 4:2:0
Bit depth                                : 8 bits
Scan type                                : Progressive
Bits/(Pixel*Frame)                       : 0.048
Stream size                              : 810 MiB (91%)


Audio
ID                                       : 2
Format                                   : AC-3
Bit rate mode                            : Constant
Bit rate                                 : 64.0 Kbps
Channel(s)                               : 2 channels
Channel positions                        : Front: L R
Sampling rate                            : 32.0 KHz
Bit depth                                : 16 bits
Compression mode                         : Lossy
Stream size                              : 66.2 MiB (7%)
 
http://www.shotpix.com/images/13415225051136294057.png
 
http://www.shotpix.com/images/46163075193285167780.png
 
http://www.shotpix.com/images/32975178266211470822.png
 
http://www.shotpix.com/images/07921359501890617195.png
 
http://www.shotpix.com/images/71720105756337766941.png
 
http://www.shotpix.com/images/81937449310061057514.png

                          
                                      
                                Check the Sample First